<?xml version="1.0" standalone="no"?><!DOCTYPE svg PUBLIC "-//W3C//DTD SVG 1.1//EN" "http://www.w3.org/Graphics/SVG/1.1/DTD/svg11.dtd"><svg class="icon" width="200px" height="200.00px" viewBox="0 0 1024 1024" version="1.1" xmlns="http://www.w3.org/2000/svg"><path d="M884.956224 260.080433 135.440715 260.080433c-39.717583 0-71.91489 32.197306-71.91489 71.91489l0 348.388688c0 39.717583 32.197306 71.91489 71.91489 71.91489l749.515508 0c39.717583 0 71.91489-32.197306 71.91489-71.91489L956.871113 331.995323C956.872137 292.27774 924.673807 260.080433 884.956224 260.080433zM321.788867 619.439988l-51.29527 0-97.328699-188.95042 0 187.927113-30.699186 0L142.465712 394.98596l45.428655 0 100.156094 193.754842 3.040243 0L291.090705 393.962653l30.699186 0L321.78989 619.439988zM525.223163 490.457358l0.01842 30.699186-124.982526 0.072655c0.022513 2.290159 0.047072 4.417613 0.073678 6.358825l0.001023 0.163729c0.127913 39.408545 12.627598 59.391668 37.150108 59.391668l87.747483 0 0 30.699186-87.747483 0c-19.334347 0-35.804461-7.283894-47.628764-21.063735-13.30605-15.506159-20.110013-38.668695-20.22053-68.842924-0.160659-11.556197-0.23843-29.040407-0.23843-53.446259 0-50.776454 35.286668-74.840522 68.309782-80.430844l1.430582-0.208754c13.673417-1.381463 78.92556-0.460488 86.320994-0.352017l-0.453325 30.696116c-27.859511-0.412392-72.247464-0.703011-82.299401 0.154519-12.917194 2.213411-42.609447 11.520381-42.609447 50.14098 0 5.733585 0.004093 11.067057 0.013303 16.041348L525.223163 490.457358zM813.156968 619.439988l-45.617967 0-45.577035-179.696662-50.721195 179.696662-46.979988 0-65.441455-225.358631 33.475416 0 57.878199 184.426383 1.927909-1.023306 51.04149-184.072319 38.740326 0 49.151443 193.784518 60.022025-193.22477 32.32522 0L813.156968 619.439988z" fill="#d81e06" /></svg>